#!OML:ASF G:\acrobat\cartwheel_test\acrobat_wednesday\Session 1\acrobatwednesday.ASF
:FULLY-SPECIFIED
:DEGREES
230
root 9.95321 14.7027 3.50008 -235.582 88.4363 -229.734
lowerback -0.669008 -0.779929 -0.297457
upperback 2.94014 -1.01132 0.152419
thorax 3.40243 -0.503092 0.287266
lowerneck -17.2767 -12.8191 -15.5922
upperneck 22.4793 -16.2203 10.0895
head 12.4636 -7.43283 3.49779
rclavicle -8.01273e-015 2.5842e-015
rhumerus 0 0 0
rradius 0
rwrist 0
rhand 0 0
rfingers 0
rthumb 0 0
lclavicle -8.01273e-015 2.5842e-015
lhumerus 0 0 0
lradius 0
lwrist 0
lhand 0 0
lfingers 0
lthumb 0 0
rfemur -15.2629 -9.1492 10.7403
rtibia 54.3225
rfoot 9.96388 14.5394
rtoes -21.2806
lfemur -17.5896 9.54623 -9.45766
ltibia 55.9286
lfoot 19.1488 6.95847
ltoes -19.6171
231
root 9.95407 14.703 3.49626 -234.311 88.3964 -228.49
lowerback -0.678805 -0.803642 -0.261504
upperback 2.92769 -1.04427 0.15761
thorax 3.39477 -0.518696 0.271226
lowerneck -17.335 -12.8305 -15.5729
upperneck 22.5118 -16.2262 10.0525
head 12.4827 -7.43538 3.47691
rclavicle -1.347e-014 1.19271e-015
rhumerus 0 0 0
rradius 0
rwrist 0
rhand 0 0
rfingers 0
rthumb 0 0
lclavicle -1.347e-014 1.19271e-015
lhumerus 0 0 0
lradius 0
lwrist 0
lhand 0 0
lfingers 0
lthumb 0 0
rfemur -15.1558 -9.1528 10.7135
rtibia 54.1197
rfoot 9.97625 14.5706
rtoes -21.3608
lfemur -17.623 9.48256 -9.50393
ltibia 55.9183
lfoot 19.1954 6.82462
ltoes -18.9958
232
root 9.95666 14.7029 3.49396 -234.189 88.3387 -228.386
lowerback -0.722504 -0.824141 -0.26684
upperback 2.93146 -1.07113 0.142687
thorax 3.42338 -0.532079 0.257192
lowerneck -17.3557 -12.8349 -15.5751
upperneck 22.4652 -16.2373 10.0943
head 12.4746 -7.43553 3.48934
rclavicle 2.32097e-015 -3.18055e-015
rhumerus 0 0 0
rradius 0
rwrist 0
rhand 0 0
rfingers 0
rthumb 0 0
lclavicle 2.32097e-015 -3.18055e-015
lhumerus 0 0 0
lradius 0
lwrist 0
lhand 0 0
lfingers 0
lthumb 0 0
rfemur -15.1934 -9.18202 10.6345
rtibia 54.2419
rfoot 9.9161 14.742
rtoes -19.5307
lfemur -17.6307 9.46226 -9.56888
ltibia 55.885
lfoot 19.2111 6.69605
ltoes -18.4965
233
root 9.96053 14.7022 3.49401 -233.414 88.3682 -227.584
lowerback -0.737756 -0.826381 -0.214369
upperback 2.93858 -1.07538 0.143453
thorax 3.43841 -0.532735 0.228151
lowerneck -17.3083 -12.8246 -15.565
upperneck 22.4021 -16.2366 10.1279
head 12.4429 -7.43331 3.50284
rclavicle 3.98889e-015 4.57205e-015
rhumerus 0 0 0
rradius 0
rwrist 0
rhand 0 0
rfingers 0
rthumb 0 0
lclavicle 3.98889e-015 4.57205e-015
lhumerus 0 0 0
lradius 0
lwrist 0
lhand 0 0
lfingers 0
lthumb 0 0
rfemur -15.3121 -9.20225 10.6525
rtibia 54.5623
rfoot 9.74185 14.9522
rtoes -16.6578
lfemur -17.5862 9.47216 -9.51199
ltibia 55.8849
lfoot 19.2528 6.68186
ltoes -18.6861
234
root 9.96277 14.7011 3.49144 -230.658 88.4278 -224.781
lowerback -0.707436 -0.836885 -0.0753159
upperback 2.94779 -1.09313 0.161667
thorax 3.4286 -0.537865 0.168766
lowerneck -17.3987 -12.8171 -15.479
upperneck 22.4928 -16.2118 10.011
head 12.4717 -7.42413 3.44745
rclavicle 2.57954e-015 8.15017e-015
rhumerus 0 0 0
rradius 0
rwrist 0
rhand 0 0
rfingers 0
rthumb 0 0
lclavicle 2.57954e-015 8.15017e-015
lhumerus 0 0 0
lradius 0
lwrist 0
lhand 0 0
lfingers 0
lthumb 0 0
rfemur -15.3073 -9.30093 10.744
rtibia 54.6157
rfoot 9.98765 14.6963
rtoes -17.8343
lfemur -17.5351 9.44438 -9.40674
ltibia 55.9025
lfoot 19.2568 6.8022
ltoes -19.6579
235
root 9.96361 14.7015 3.48695 -228.337 88.4026 -222.448
lowerback -0.705892 -0.858066 0.00822699
upperback 2.95369 -1.12345 0.163961
thorax 3.43236 -0.550626 0.123216
lowerneck -17.5239 -12.8241 -15.4317
upperneck 22.5966 -16.2077 9.94528
head 12.5248 -7.41957 3.41082
rclavicle 3.2582e-015 1.59028e-015
rhumerus 0 0 0
rradius 0
rwrist 0
rhand 0 0
rfingers 0
rthumb 0 0
lclavicle 3.2582e-015 1.59028e-015
lhumerus 0 0 0
lradius 0
lwrist 0
lhand 0 0
lfingers 0
lthumb 0 0
rfemur -15.1929 -9.40634 10.7461
rtibia 54.4514
rfoot 10.2335 14.4172
rtoes -19.6979
lfemur -17.5338 9.38729 -9.40311
ltibia 55.8813
lfoot 19.1982 6.79189
ltoes -19.7353
236
root 9.9658 14.7019 3.48367 -226.708 88.3772 -220.78
lowerback -0.715102 -0.877846 0.0556435
upperback 2.97701 -1.15091 0.171194
thorax 3.46098 -0.562896 0.10273
lowerneck -17.5564 -12.8347 -15.4261
upperneck 22.5787 -16.2164 9.9378
head 12.5239 -7.42297 3.40351
rclavicle -4.45014e-015 -3.97569e-016
rhumerus 0 0 0
rradius 0
rwrist 0
rhand 0 0
rfingers 0
rthumb 0 0
lclavicle -4.45014e-015 -3.97569e-016
lhumerus 0 0 0
lradius 0
lwrist 0
lhand 0 0
lfingers 0
lthumb 0 0
rfemur -15.0473 -9.37724 10.722
rtibia 54.348
rfoot 9.90698 14.6512
rtoes -17.3279
lfemur -17.4879 9.33899 -9.39833
ltibia 55.8654
lfoot 19.1611 6.77195
ltoes -19.4458
237
root 9.96812 14.701 3.48175 -227.935 88.3991 -221.964
lowerback -0.734633 -0.870789 0.064322
upperback 3.01657 -1.14122 0.173259
thorax 3.51281 -0.557515 0.0996775
lowerneck -17.5526 -12.8296 -15.4388
upperneck 22.4642 -16.2114 9.98997
head 12.4839 -7.41795 3.42573
rclavicle 1.30328e-014 -1.59028e-015
rhumerus 0 0 0
rradius 0
rwrist 0
rhand 0 0
rfingers 0
rthumb 0 0
lclavicle 1.30328e-014 -1.59028e-015
lhumerus 0 0 0
lradius 0
lwrist 0
lhand 0 0
lfingers 0
lthumb 0 0
rfemur -14.9867 -9.25596 10.6966
rtibia 54.3115
rfoot 9.59213 14.8835
rtoes -15.1958
lfemur -17.4031 9.36475 -9.40432
ltibia 55.855
lfoot 19.1767 6.82538
ltoes -19.5649
238
root 9.96896 14.7011 3.48068 -229.847 88.4345 -223.873
lowerback -0.747317 -0.858788 0.0743943
upperback 3.03799 -1.12523 0.174744
thorax 3.54196 -0.549092 0.0957767
lowerneck -17.6145 -12.8191 -15.4642
upperneck 22.4015 -16.1931 10.0535
head 12.4776 -7.40329 3.45392
rclavicle 1.11572e-014 0
rhumerus 0 0 0
rradius 0
rwrist 0
rhand 0 0
rfingers 0
rthumb 0 0
lclavicle 1.11572e-014 0
lhumerus 0 0 0
lradius 0
lwrist 0
lhand 0 0
lfingers 0
lthumb 0 0
rfemur -15.0027 -9.18339 10.6959
rtibia 54.3266
rfoot 9.57881 14.9058
rtoes -15.9312
lfemur -17.3682 9.42615 -9.40798
ltibia 55.8352
lfoot 19.1788 6.79384
ltoes -19.4263
239
root 9.97001 14.7022 3.47934 -229.552 88.4261 -223.568
lowerback -0.734106 -0.863745 0.0908463
upperback 3.04391 -1.13238 0.185521
thorax 3.54052 -0.552277 0.0975354
lowerneck -17.7129 -12.8263 -15.4523
upperneck 22.4302 -16.1786 9.99517
head 12.4986 -7.39885 3.42834
rclavicle -8.56016e-015 3.18055e-015
rhumerus 0 0 0
rradius 0
rwrist 0
rhand 0 0
rfingers 0
rthumb 0 0
lclavicle -8.56016e-015 3.18055e-015
lhumerus 0 0 0
lradius 0
lwrist 0
lhand 0 0
lfingers 0
lthumb 0 0
rfemur -14.8984 -9.15597 10.6899
rtibia 54.2276
rfoot 9.44897 15.034
rtoes -16.478
lfemur -17.3544 9.4125 -9.41576
ltibia 55.8311
lfoot 19.1908 6.79203
ltoes -19.4851
240
root 9.97101 14.7032 3.47743 -229.526 88.3833 -223.538
lowerback -0.722808 -0.868608 0.0788302
upperback 3.02975 -1.1385 0.177616
thorax 3.51957 -0.555671 0.0962147
lowerneck -17.7472 -12.8232 -15.3992
upperneck 22.4326 -16.1613 9.91291
head 12.4896 -7.39549 3.39153
rclavicle 7.24982e-015 1.98785e-015
rhumerus 0 0 0
rradius 0
rwrist 0
rhand 0 0
rfingers 0
rthumb 0 0
lclavicle 7.24982e-015 1.98785e-015
lhumerus 0 0 0
lradius 0
lwrist 0
lhand 0 0
lfingers 0
lthumb 0 0
rfemur -14.7208 -9.10381 10.6443
rtibia 53.9209
rfoot 9.31392 15.1103
rtoes -16.4652
lfemur -17.3499 9.36204 -9.47288
ltibia 55.8244
lfoot 19.2345 6.83243
ltoes -19.5341
241
root 9.97087 14.7035 3.47571 -231.625 88.3913 -225.657
lowerback -0.69201 -0.854335 0.0704243
upperback 2.98986 -1.11918 0.159171
thorax 3.46061 -0.546349 0.0835437
lowerneck -17.7388 -12.8018 -15.3476
upperneck 22.4207 -16.1354 9.87625
head 12.4705 -7.38476 3.37622
rclavicle -7.49713e-015 -7.95139e-016
rhumerus 0 0 0
rradius 0
rwrist 0
rhand 0 0
rfingers 0
rthumb 0 0
lclavicle -7.49713e-015 -7.95139e-016
lhumerus 0 0 0
lradius 0
lwrist 0
lhand 0 0
lfingers 0
lthumb 0 0
rfemur -14.6964 -9.02009 10.6133
rtibia 53.7862
rfoot 9.33979 15.0289
rtoes -16.7547
lfemur -17.3487 9.38522 -9.51903
ltibia 55.8221
lfoot 19.2848 6.78139
ltoes -18.869
242
root 9.97046 14.7037 3.47439 -232.601 88.4232 -226.638
lowerback -0.669769 -0.832797 0.100142
upperback 2.96442 -1.09118 0.149915
thorax 3.42092 -0.531632 0.0590034
lowerneck -17.6661 -12.7876 -15.3154
upperneck 22.3669 -16.1284 9.87007
head 12.4304 -7.38347 3.37422
rclavicle -1.33349e-014 8.74653e-015
rhumerus 0 0 0
rradius 0
rwrist 0
rhand 0 0
rfingers 0
rthumb 0 0
lclavicle -1.33349e-014 8.74653e-015
lhumerus 0 0 0
lradius 0
lwrist 0
lhand 0 0
lfingers 0
lthumb 0 0
rfemur -14.7431 -9.02568 10.6345
rtibia 53.807
rfoot 9.71386 14.6958
rtoes -19.5515
lfemur -17.3465 9.40481 -9.51136
ltibia 55.8442
lfoot 19.3747 6.55912
ltoes -17.4506
243
root 9.97158 14.7044 3.47521 -228.196 88.5256 -222.178
lowerback -0.645487 -0.83485 0.245985
upperback 2.98962 -1.09808 0.193287
thorax 3.43137 -0.531339 0.0218543
lowerneck -17.6531 -12.7758 -15.3113
upperneck 22.324 -16.1163 9.88951
head 12.4108 -7.37677 3.38404
rclavicle 3.34129e-015 -1.98785e-015
rhumerus 0 0 0
rradius 0
rwrist 0
rhand 0 0
rfingers 0
rthumb 0 0
lclavicle 3.34129e-015 -1.98785e-015
lhumerus 0 0 0
lradius 0
lwrist 0
lhand 0 0
lfingers 0
lthumb 0 0
rfemur -14.7483 -9.09148 10.8195
rtibia 53.9018
rfoot 10.0018 14.4829
rtoes -21.6108
lfemur -17.3054 9.40455 -9.30928
ltibia 55.8676
lfoot 19.3782 6.49929
ltoes -17.0655
244
root 9.97424 14.7046 3.47836 -220.898 88.6715 -214.794
lowerback -0.580615 -0.860591 0.423813
upperback 3.03637 -1.13776 0.281884
thorax 3.44144 -0.546807 0.0125828
lowerneck -17.8192 -12.766 -15.3459
upperneck 22.3932 -16.0811 9.91419
head 12.4712 -7.35379 3.39786
rclavicle -3.49426e-017 -1.98785e-016
rhumerus 0 0 0
rradius 0
rwrist 0
rhand 0 0
rfingers 0
rthumb 0 0
lclavicle -3.49426e-017 -1.98785e-016
lhumerus 0 0 0
lradius 0
lwrist 0
lhand 0 0
lfingers 0
lthumb 0 0
rfemur -14.7688 -9.12945 11.0983
rtibia 54.1466
rfoot 10.0574 14.619
rtoes -20.4004
lfemur -17.2152 9.43275 -8.9899
ltibia 55.8609
lfoot 19.2633 6.73678
ltoes -18.3387
245
root 9.97549 14.7058 3.47797 -219.608 88.7034 -213.486
lowerback -0.560747 -0.876678 0.46198
upperback 3.05013 -1.16037 0.306214
thorax 3.44416 -0.557169 0.0156295
lowerneck -17.9375 -12.7532 -15.3829
upperneck 22.4193 -16.0499 9.95874
head 12.5082 -7.33295 3.42103
rclavicle -1.21367e-015 1.19271e-015
rhumerus 0 0 0
rradius 0
rwrist 0
rhand 0 0
rfingers 0
rthumb 0 0
lclavicle -1.21367e-015 1.19271e-015
lhumerus 0 0 0
lradius 0
lwrist 0
lhand 0 0
lfingers 0
lthumb 0 0
rfemur -14.823 -9.14963 11.1555
rtibia 54.3212
rfoot 10.1742 14.7152
rtoes -18.9398
lfemur -17.1803 9.42752 -8.93365
ltibia 55.8384
lfoot 19.2444 6.82459
ltoes -19.0732
246
root 9.97559 14.7089 3.47318 -226.343 88.5633 -220.287
lowerback -0.63104 -0.863506 0.305123
upperback 3.01757 -1.1383 0.232448
thorax 3.45176 -0.549982 0.0275314
lowerneck -17.8445 -12.7461 -15.3716
upperneck 22.3309 -16.0533 9.97403
head 12.4562 -7.33674 3.42864
rclavicle 5.85794e-015 0
rhumerus 0 0 0
rradius 0
rwrist 0
rhand 0 0
rfingers 0
rthumb 0 0
lclavicle 5.85794e-015 0
lhumerus 0 0 0
lradius 0
lwrist 0
lhand 0 0
lfingers 0
lthumb 0 0
rfemur -14.8954 -9.16902 10.8838
rtibia 54.3277
rfoot 10.1798 14.6854
rtoes -18.4875
lfemur -17.2247 9.37976 -9.23596
ltibia 55.812
lfoot 19.2279 6.90505
ltoes -19.7738
247
root 9.97746 14.7111 3.47053 -230.215 88.4884 -224.219
lowerback -0.715309 -0.828814 0.220236
upperback 3.00255 -1.0894 0.180078
thorax 3.48445 -0.527459 0.0218005
lowerneck -17.7693 -12.7727 -15.3704
upperneck 22.2686 -16.1076 10.0079
head 12.4284 -7.36025 3.43303
rclavicle 1.48623e-015 -8.74653e-015
rhumerus 0 0 0
rradius 0
rwrist 0
rhand 0 0
rfingers 0
rthumb 0 0
lclavicle 1.48623e-015 -8.74653e-015
lhumerus 0 0 0
lradius 0
lwrist 0
lhand 0 0
lfingers 0
lthumb 0 0
rfemur -14.8716 -9.12119 10.7329
rtibia 54.1615
rfoot 10.0828 14.6378
rtoes -18.5323
lfemur -17.2586 9.38464 -9.40841
ltibia 55.7779
lfoot 19.1274 7.04473
ltoes -20.576
